<svg width="32" height="32" viewBox="0 0 32 32" fill="none" xmlns="http://www.w3.org/2000/svg">
<rect width="32" height="32" fill="black"/>
<path d="M7.62456 21.2314C7.134 20.3801 6.75886 19.5613 6.49915 18.775C6.23944 17.9814 6.10959 17.1554 6.10959 16.2969C6.10959 15.4601 6.24305 14.6268 6.50997 13.7972C6.78411 12.9604 7.15925 12.1848 7.63538 11.4706H9.06379L9.07461 11.5031C8.64898 12.3471 8.33155 13.1515 8.12234 13.9162C7.91313 14.6737 7.80853 15.4673 7.80853 16.2969C7.80853 17.1698 7.91313 17.9886 8.12234 18.7533C8.33155 19.518 8.64537 20.3332 9.06379 21.1989L9.05297 21.2314H7.62456ZM8.8286 19.5L11.6746 11.9251H13.4385L16.2736 19.5H14.4881L12.984 14.9118C12.9695 14.8613 12.9515 14.8108 12.9299 14.7603C12.9154 14.7026 12.8974 14.6449 12.8757 14.5871C12.8108 14.4068 12.7459 14.2156 12.681 14.0136C12.616 13.8044 12.5655 13.6096 12.5295 13.4293H12.5186C12.4609 13.6457 12.4032 13.8513 12.3455 14.0461C12.295 14.2337 12.2409 14.4176 12.1832 14.598C12.1688 14.6485 12.1507 14.7026 12.1291 14.7603C12.1147 14.8108 12.0966 14.8613 12.075 14.9118L10.6033 19.5H8.8286ZM10.3219 17.747L10.7872 16.3727H14.3366L14.7262 17.747H10.3219ZM19.8013 19.6299C19.0005 19.6299 18.3115 19.4784 17.7344 19.1754C17.1645 18.8724 16.728 18.4287 16.425 17.8443C16.1293 17.26 15.9814 16.5494 15.9814 15.7126C15.9814 14.9406 16.1293 14.2625 16.425 13.6782C16.728 13.0866 17.1645 12.6249 17.7344 12.293C18.3115 11.9612 19.0005 11.7953 19.8013 11.7953C20.3712 11.7953 20.8942 11.889 21.3703 12.0766C21.8465 12.2642 22.2469 12.5491 22.5715 12.9315C22.9034 13.3138 23.1378 13.7864 23.2749 14.3491L21.5651 14.6737C21.4786 14.1832 21.2874 13.8008 20.9916 13.5267C20.6958 13.2525 20.299 13.1155 19.8013 13.1155C19.4406 13.1155 19.1267 13.1624 18.8598 13.2561C18.6001 13.3427 18.3873 13.4942 18.2214 13.7106C18.0554 13.9343 17.9292 14.2156 17.8426 14.5547C17.7633 14.8938 17.7236 15.2797 17.7236 15.7126C17.7236 16.1671 17.7524 16.5422 17.8102 16.838C17.8679 17.1265 17.9761 17.379 18.1348 17.5955C18.3007 17.8407 18.5171 18.0211 18.7841 18.1365C19.0582 18.2519 19.3973 18.3097 19.8013 18.3097C20.2918 18.3097 20.685 18.1834 20.9808 17.9309C21.2838 17.6712 21.4894 17.3141 21.5976 16.8596L23.3398 17.3141C23.0513 18.0572 22.6004 18.6307 21.9872 19.0347C21.374 19.4315 20.6453 19.6299 19.8013 19.6299ZM23.0792 21.1989C23.4976 20.3332 23.8114 19.518 24.0206 18.7533C24.2298 17.9886 24.3344 17.1698 24.3344 16.2969C24.3344 15.4673 24.2298 14.6737 24.0206 13.9162C23.8114 13.1515 23.494 12.3471 23.0684 11.5031L23.0792 11.4706H24.5076C24.9837 12.1848 25.3552 12.9604 25.6222 13.7972C25.8963 14.6268 26.0334 15.4601 26.0334 16.2969C26.0334 17.1554 25.9035 17.9814 25.6438 18.775C25.3841 19.5613 25.009 20.3801 24.5184 21.2314H23.09L23.0792 21.1989Z" fill="white"/>
</svg>
